<mxfile host="65bd71144e">
    <diagram id="GRxGt6QBEP_Wan1_cI3u" name="Figures">
        <mxGraphModel dx="3623" dy="2977" grid="1" gridSize="10" guides="1" tooltips="1" connect="1" arrows="1" fold="1" page="1" pageScale="1" pageWidth="850" pageHeight="1100" math="0" shadow="0">
            <root>
                <mxCell id="0"/>
                <mxCell id="1" parent="0"/>
                <mxCell id="D39J3mKKFVJNs5gxyIfl-1" value="" style="rounded=0;whiteSpace=wrap;html=1;fontSize=20;" parent="1" vertex="1">
                    <mxGeometry x="505" y="-620" width="120" height="40" as="geometry"/>
                </mxCell>
                <mxCell id="D39J3mKKFVJNs5gxyIfl-2" value="&lt;font&gt;Bid&lt;/font&gt;" style="rounded=0;whiteSpace=wrap;html=1;fontSize=20;" parent="1" vertex="1">
                    <mxGeometry x="395" y="230" width="145" height="60" as="geometry"/>
                </mxCell>
                <mxCell id="D39J3mKKFVJNs5gxyIfl-3" value="" style="rounded=0;whiteSpace=wrap;html=1;fontSize=20;" parent="1" vertex="1">
                    <mxGeometry x="705" y="-30" width="120" height="40" as="geometry"/>
                </mxCell>
                <mxCell id="D39J3mKKFVJNs5gxyIfl-4" value="" style="rounded=0;whiteSpace=wrap;html=1;fontSize=20;" parent="1" vertex="1">
                    <mxGeometry x="465" y="-340" width="200" height="40" as="geometry"/>
                </mxCell>
                <mxCell id="D39J3mKKFVJNs5gxyIfl-196" style="edgeStyle=none;html=1;exitX=0;exitY=0.25;exitDx=0;exitDy=0;entryX=1;entryY=0.5;entryDx=0;entryDy=0;endArrow=none;endFill=0;fontSize=20;" parent="1" source="D39J3mKKFVJNs5gxyIfl-5" target="D39J3mKKFVJNs5gxyIfl-192" edge="1">
                    <mxGeometry relative="1" as="geometry"/>
                </mxCell>
                <mxCell id="D39J3mKKFVJNs5gxyIfl-5" value="" style="rounded=0;whiteSpace=wrap;html=1;fontSize=20;" parent="1" vertex="1">
                    <mxGeometry x="-27.5" y="-45" width="135" height="70" as="geometry"/>
                </mxCell>
                <mxCell id="D39J3mKKFVJNs5gxyIfl-6" style="edgeStyle=orthogonalEdgeStyle;rounded=0;orthogonalLoop=1;jettySize=auto;html=1;exitX=1;exitY=0.5;exitDx=0;exitDy=0;entryX=0;entryY=0.5;entryDx=0;entryDy=0;endArrow=none;endFill=0;fontSize=20;" parent="1" source="D39J3mKKFVJNs5gxyIfl-7" target="D39J3mKKFVJNs5gxyIfl-3" edge="1">
                    <mxGeometry relative="1" as="geometry"/>
                </mxCell>
                <mxCell id="JoQH5XIiUOrpLRndID1Y-2" value="N" style="edgeLabel;html=1;align=center;verticalAlign=middle;resizable=0;points=[];fontSize=20;" parent="D39J3mKKFVJNs5gxyIfl-6" vertex="1" connectable="0">
                    <mxGeometry x="0.7283" relative="1" as="geometry">
                        <mxPoint as="offset"/>
                    </mxGeometry>
                </mxCell>
                <mxCell id="D39J3mKKFVJNs5gxyIfl-7" value="&lt;font&gt;list&lt;/font&gt;" style="rhombus;whiteSpace=wrap;html=1;opacity=70;fontSize=20;" parent="1" vertex="1">
                    <mxGeometry x="280" y="-50" width="160" height="80" as="geometry"/>
                </mxCell>
                <mxCell id="D39J3mKKFVJNs5gxyIfl-8" style="edgeStyle=orthogonalEdgeStyle;rounded=0;orthogonalLoop=1;jettySize=auto;html=1;exitX=0.5;exitY=1;exitDx=0;exitDy=0;entryX=0;entryY=0.5;entryDx=0;entryDy=0;endArrow=none;endFill=0;fontSize=20;" parent="1" source="D39J3mKKFVJNs5gxyIfl-9" target="D39J3mKKFVJNs5gxyIfl-2" edge="1">
                    <mxGeometry relative="1" as="geometry">
                        <Array as="points">
                            <mxPoint x="40" y="260"/>
                        </Array>
                    </mxGeometry>
                </mxCell>
                <mxCell id="JoQH5XIiUOrpLRndID1Y-4" value="N" style="edgeLabel;html=1;align=center;verticalAlign=middle;resizable=0;points=[];fontSize=20;" parent="D39J3mKKFVJNs5gxyIfl-8" vertex="1" connectable="0">
                    <mxGeometry x="0.6405" y="2" relative="1" as="geometry">
                        <mxPoint as="offset"/>
                    </mxGeometry>
                </mxCell>
                <mxCell id="D39J3mKKFVJNs5gxyIfl-9" value="z" style="rhombus;whiteSpace=wrap;html=1;opacity=70;fontSize=20;" parent="1" vertex="1">
                    <mxGeometry x="-40" y="140" width="160" height="80" as="geometry"/>
                </mxCell>
                <mxCell id="D39J3mKKFVJNs5gxyIfl-10" style="edgeStyle=orthogonalEdgeStyle;rounded=0;orthogonalLoop=1;jettySize=auto;html=1;exitX=0.5;exitY=1;exitDx=0;exitDy=0;entryX=1;entryY=0.5;entryDx=0;entryDy=0;endArrow=none;endFill=0;fontSize=20;" parent="1" source="D39J3mKKFVJNs5gxyIfl-11" target="D39J3mKKFVJNs5gxyIfl-2" edge="1">
                    <mxGeometry relative="1" as="geometry"/>
                </mxCell>
                <mxCell id="JoQH5XIiUOrpLRndID1Y-5" value="N" style="edgeLabel;html=1;align=center;verticalAlign=middle;resizable=0;points=[];fontSize=20;" parent="D39J3mKKFVJNs5gxyIfl-10" vertex="1" connectable="0">
                    <mxGeometry x="-0.1151" relative="1" as="geometry">
                        <mxPoint as="offset"/>
                    </mxGeometry>
                </mxCell>
                <mxCell id="D39J3mKKFVJNs5gxyIfl-11" value="" style="rhombus;whiteSpace=wrap;html=1;opacity=70;fontSize=20;" parent="1" vertex="1">
                    <mxGeometry x="685" y="140" width="160" height="80" as="geometry"/>
                </mxCell>
                <mxCell id="D39J3mKKFVJNs5gxyIfl-12" style="rounded=0;orthogonalLoop=1;jettySize=auto;html=1;exitX=0.5;exitY=0;exitDx=0;exitDy=0;entryX=1;entryY=1;entryDx=0;entryDy=0;endArrow=none;endFill=0;fontSize=20;" parent="1" source="D39J3mKKFVJNs5gxyIfl-13" target="D39J3mKKFVJNs5gxyIfl-26" edge="1">
                    <mxGeometry relative="1" as="geometry"/>
                </mxCell>
                <mxCell id="JoQH5XIiUOrpLRndID1Y-8" value="1" style="edgeLabel;html=1;align=center;verticalAlign=middle;resizable=0;points=[];fontSize=20;" parent="D39J3mKKFVJNs5gxyIfl-12" vertex="1" connectable="0">
                    <mxGeometry x="0.6303" y="1" relative="1" as="geometry">
                        <mxPoint as="offset"/>
                    </mxGeometry>
                </mxCell>
                <mxCell id="D39J3mKKFVJNs5gxyIfl-13" value="" style="rhombus;whiteSpace=wrap;html=1;opacity=70;fontSize=20;" parent="1" vertex="1">
                    <mxGeometry x="685" y="-180" width="160" height="80" as="geometry"/>
                </mxCell>
                <mxCell id="D39J3mKKFVJNs5gxyIfl-16" style="edgeStyle=orthogonalEdgeStyle;rounded=0;orthogonalLoop=1;jettySize=auto;html=1;exitX=0.5;exitY=0;exitDx=0;exitDy=0;entryX=0.5;entryY=1;entryDx=0;entryDy=0;endArrow=none;endFill=0;fontSize=20;" parent="1" source="D39J3mKKFVJNs5gxyIfl-17" target="D39J3mKKFVJNs5gxyIfl-27" edge="1">
                    <mxGeometry relative="1" as="geometry"/>
                </mxCell>
                <mxCell id="JoQH5XIiUOrpLRndID1Y-15" value="&lt;font style=&quot;font-size: 20px;&quot;&gt;N&lt;/font&gt;" style="edgeLabel;html=1;align=center;verticalAlign=middle;resizable=0;points=[];" parent="D39J3mKKFVJNs5gxyIfl-16" vertex="1" connectable="0">
                    <mxGeometry x="0.4904" y="2" relative="1" as="geometry">
                        <mxPoint as="offset"/>
                    </mxGeometry>
                </mxCell>
                <mxCell id="D39J3mKKFVJNs5gxyIfl-17" value="" style="rhombus;whiteSpace=wrap;html=1;fontSize=20;" parent="1" vertex="1">
                    <mxGeometry x="485" y="-500" width="160" height="80" as="geometry"/>
                </mxCell>
                <mxCell id="D39J3mKKFVJNs5gxyIfl-18" style="edgeStyle=orthogonalEdgeStyle;rounded=0;orthogonalLoop=1;jettySize=auto;html=1;entryX=0;entryY=0.5;entryDx=0;entryDy=0;endArrow=none;endFill=0;exitX=1;exitY=0.5;exitDx=0;exitDy=0;fontSize=20;" parent="1" source="D39J3mKKFVJNs5gxyIfl-5" target="D39J3mKKFVJNs5gxyIfl-7" edge="1">
                    <mxGeometry relative="1" as="geometry">
                        <mxPoint x="420" y="-10" as="sourcePoint"/>
                    </mxGeometry>
                </mxCell>
                <mxCell id="JoQH5XIiUOrpLRndID1Y-1" value="1" style="edgeLabel;html=1;align=center;verticalAlign=middle;resizable=0;points=[];fontSize=20;" parent="D39J3mKKFVJNs5gxyIfl-18" vertex="1" connectable="0">
                    <mxGeometry x="-0.287" y="-3" relative="1" as="geometry">
                        <mxPoint as="offset"/>
                    </mxGeometry>
                </mxCell>
                <mxCell id="D39J3mKKFVJNs5gxyIfl-19" style="edgeStyle=orthogonalEdgeStyle;rounded=0;orthogonalLoop=1;jettySize=auto;html=1;entryX=0.5;entryY=0;entryDx=0;entryDy=0;endArrow=none;endFill=0;exitX=0.5;exitY=1;exitDx=0;exitDy=0;fontSize=20;" parent="1" source="D39J3mKKFVJNs5gxyIfl-5" target="D39J3mKKFVJNs5gxyIfl-9" edge="1">
                    <mxGeometry relative="1" as="geometry">
                        <mxPoint x="40" y="30" as="sourcePoint"/>
                    </mxGeometry>
                </mxCell>
                <mxCell id="JoQH5XIiUOrpLRndID1Y-3" value="M" style="edgeLabel;html=1;align=center;verticalAlign=middle;resizable=0;points=[];fontSize=20;" parent="D39J3mKKFVJNs5gxyIfl-19" vertex="1" connectable="0">
                    <mxGeometry x="-0.3435" y="3" relative="1" as="geometry">
                        <mxPoint as="offset"/>
                    </mxGeometry>
                </mxCell>
                <mxCell id="D39J3mKKFVJNs5gxyIfl-21" value="user" style="text;strokeColor=none;fillColor=none;html=1;fontSize=20;fontStyle=1;verticalAlign=middle;align=center;strokeWidth=1;" parent="1" vertex="1">
                    <mxGeometry x="-10" y="-30" width="100" height="40" as="geometry"/>
                </mxCell>
                <mxCell id="D39J3mKKFVJNs5gxyIfl-22" style="edgeStyle=orthogonalEdgeStyle;rounded=0;orthogonalLoop=1;jettySize=auto;html=1;exitX=0.5;exitY=1;exitDx=0;exitDy=0;entryX=0.5;entryY=0;entryDx=0;entryDy=0;endArrow=none;endFill=0;fontSize=20;" parent="1" source="D39J3mKKFVJNs5gxyIfl-24" target="D39J3mKKFVJNs5gxyIfl-11" edge="1">
                    <mxGeometry relative="1" as="geometry"/>
                </mxCell>
                <mxCell id="JoQH5XIiUOrpLRndID1Y-6" value="1" style="edgeLabel;html=1;align=center;verticalAlign=middle;resizable=0;points=[];fontSize=20;" parent="D39J3mKKFVJNs5gxyIfl-22" vertex="1" connectable="0">
                    <mxGeometry x="-0.3808" relative="1" as="geometry">
                        <mxPoint as="offset"/>
                    </mxGeometry>
                </mxCell>
                <mxCell id="D39J3mKKFVJNs5gxyIfl-23" style="edgeStyle=orthogonalEdgeStyle;rounded=0;orthogonalLoop=1;jettySize=auto;html=1;exitX=0.5;exitY=0;exitDx=0;exitDy=0;entryX=0.5;entryY=1;entryDx=0;entryDy=0;endArrow=none;endFill=0;fontSize=20;" parent="1" source="D39J3mKKFVJNs5gxyIfl-24" target="D39J3mKKFVJNs5gxyIfl-13" edge="1">
                    <mxGeometry relative="1" as="geometry"/>
                </mxCell>
                <mxCell id="JoQH5XIiUOrpLRndID1Y-7" value="1" style="edgeLabel;html=1;align=center;verticalAlign=middle;resizable=0;points=[];fontSize=20;" parent="D39J3mKKFVJNs5gxyIfl-23" vertex="1" connectable="0">
                    <mxGeometry x="0.3786" y="5" relative="1" as="geometry">
                        <mxPoint as="offset"/>
                    </mxGeometry>
                </mxCell>
                <mxCell id="D39J3mKKFVJNs5gxyIfl-24" value="catalog" style="text;strokeColor=none;fillColor=none;html=1;fontSize=20;fontStyle=1;verticalAlign=middle;align=center;" parent="1" vertex="1">
                    <mxGeometry x="715" y="-30" width="100" height="40" as="geometry"/>
                </mxCell>
                <mxCell id="D39J3mKKFVJNs5gxyIfl-25" style="edgeStyle=orthogonalEdgeStyle;rounded=0;orthogonalLoop=1;jettySize=auto;html=1;exitX=0.5;exitY=0;exitDx=0;exitDy=0;endArrow=none;endFill=0;fontSize=20;" parent="1" source="D39J3mKKFVJNs5gxyIfl-26" target="D39J3mKKFVJNs5gxyIfl-17" edge="1">
                    <mxGeometry relative="1" as="geometry"/>
                </mxCell>
                <mxCell id="JoQH5XIiUOrpLRndID1Y-9" value="1" style="edgeLabel;html=1;align=center;verticalAlign=middle;resizable=0;points=[];fontSize=20;" parent="D39J3mKKFVJNs5gxyIfl-25" vertex="1" connectable="0">
                    <mxGeometry x="0.275" y="1" relative="1" as="geometry">
                        <mxPoint as="offset"/>
                    </mxGeometry>
                </mxCell>
                <mxCell id="D39J3mKKFVJNs5gxyIfl-26" value="purchase history" style="text;strokeColor=none;fillColor=none;html=1;fontSize=20;fontStyle=1;verticalAlign=middle;align=center;" parent="1" vertex="1">
                    <mxGeometry x="465" y="-340" width="200" height="40" as="geometry"/>
                </mxCell>
                <mxCell id="D39J3mKKFVJNs5gxyIfl-27" value="payment" style="text;strokeColor=none;fillColor=none;html=1;fontSize=20;fontStyle=1;verticalAlign=middle;align=center;" parent="1" vertex="1">
                    <mxGeometry x="515" y="-620" width="100" height="40" as="geometry"/>
                </mxCell>
                <mxCell id="D39J3mKKFVJNs5gxyIfl-30" value="places" style="text;strokeColor=none;fillColor=none;html=1;fontSize=20;fontStyle=1;verticalAlign=middle;align=center;opacity=70;" parent="1" vertex="1">
                    <mxGeometry y="160" width="100" height="40" as="geometry"/>
                </mxCell>
                <mxCell id="D39J3mKKFVJNs5gxyIfl-31" value="recieves" style="text;strokeColor=none;fillColor=none;html=1;fontSize=20;fontStyle=1;verticalAlign=middle;align=center;opacity=70;" parent="1" vertex="1">
                    <mxGeometry x="715" y="160" width="100" height="40" as="geometry"/>
                </mxCell>
                <mxCell id="D39J3mKKFVJNs5gxyIfl-32" value="sold in" style="text;strokeColor=none;fillColor=none;html=1;fontSize=20;fontStyle=1;verticalAlign=middle;align=center;opacity=70;" parent="1" vertex="1">
                    <mxGeometry x="725" y="-160" width="100" height="40" as="geometry"/>
                </mxCell>
                <mxCell id="D39J3mKKFVJNs5gxyIfl-34" value="paid by" style="text;strokeColor=none;fillColor=none;html=1;fontSize=20;fontStyle=1;verticalAlign=middle;align=center;" parent="1" vertex="1">
                    <mxGeometry x="515" y="-480" width="100" height="40" as="geometry"/>
                </mxCell>
                <mxCell id="D39J3mKKFVJNs5gxyIfl-37" value="" style="rounded=0;orthogonalLoop=1;jettySize=auto;html=1;endArrow=none;endFill=0;fontSize=20;" parent="1" source="D39J3mKKFVJNs5gxyIfl-38" target="D39J3mKKFVJNs5gxyIfl-5" edge="1">
                    <mxGeometry relative="1" as="geometry"/>
                </mxCell>
                <mxCell id="D39J3mKKFVJNs5gxyIfl-38" value="&lt;font&gt;&lt;b&gt;email&lt;/b&gt;&lt;/font&gt;" style="ellipse;whiteSpace=wrap;html=1;fontSize=20;" parent="1" vertex="1">
                    <mxGeometry x="-415" y="-40" width="120" height="80" as="geometry"/>
                </mxCell>
                <mxCell id="D39J3mKKFVJNs5gxyIfl-42" style="rounded=0;orthogonalLoop=1;jettySize=auto;html=1;exitX=1;exitY=0.5;exitDx=0;exitDy=0;entryX=0;entryY=0;entryDx=0;entryDy=0;endArrow=none;endFill=0;fontSize=20;" parent="1" source="D39J3mKKFVJNs5gxyIfl-43" target="D39J3mKKFVJNs5gxyIfl-5" edge="1">
                    <mxGeometry relative="1" as="geometry"/>
                </mxCell>
                <mxCell id="D39J3mKKFVJNs5gxyIfl-43" value="" style="ellipse;whiteSpace=wrap;html=1;fontSize=20;" parent="1" vertex="1">
                    <mxGeometry x="-255" y="-220" width="130" height="80" as="geometry"/>
                </mxCell>
                <mxCell id="D39J3mKKFVJNs5gxyIfl-44" value="user_id" style="text;strokeColor=none;fillColor=none;html=1;fontSize=20;fontStyle=5;verticalAlign=middle;align=center;strokeWidth=1;" parent="1" vertex="1">
                    <mxGeometry x="-245" y="-200" width="100" height="40" as="geometry"/>
                </mxCell>
                <mxCell id="D39J3mKKFVJNs5gxyIfl-45" value="&lt;b&gt;&lt;font&gt;phone&lt;/font&gt;&lt;/b&gt;" style="ellipse;whiteSpace=wrap;html=1;fontSize=20;" parent="1" vertex="1">
                    <mxGeometry x="-380" y="160" width="120" height="80" as="geometry"/>
                </mxCell>
                <mxCell id="D39J3mKKFVJNs5gxyIfl-46" value="" style="rounded=0;orthogonalLoop=1;jettySize=auto;html=1;endArrow=none;endFill=0;exitX=1;exitY=0;exitDx=0;exitDy=0;entryX=0.25;entryY=1;entryDx=0;entryDy=0;fontSize=20;" parent="1" source="D39J3mKKFVJNs5gxyIfl-45" target="D39J3mKKFVJNs5gxyIfl-5" edge="1">
                    <mxGeometry relative="1" as="geometry">
                        <mxPoint x="-15" y="10" as="targetPoint"/>
                        <mxPoint x="-115" y="150" as="sourcePoint"/>
                    </mxGeometry>
                </mxCell>
                <mxCell id="D39J3mKKFVJNs5gxyIfl-48" value="" style="ellipse;whiteSpace=wrap;html=1;fontSize=20;" parent="1" vertex="1">
                    <mxGeometry x="940" y="-130" width="120" height="80" as="geometry"/>
                </mxCell>
                <mxCell id="D39J3mKKFVJNs5gxyIfl-49" value="" style="rounded=0;orthogonalLoop=1;jettySize=auto;html=1;entryX=1;entryY=0;entryDx=0;entryDy=0;endArrow=none;endFill=0;fontSize=20;" parent="1" source="D39J3mKKFVJNs5gxyIfl-50" target="D39J3mKKFVJNs5gxyIfl-24" edge="1">
                    <mxGeometry relative="1" as="geometry"/>
                </mxCell>
                <mxCell id="D39J3mKKFVJNs5gxyIfl-50" value="name" style="text;strokeColor=none;fillColor=none;html=1;fontSize=20;fontStyle=1;verticalAlign=middle;align=center;strokeWidth=1;" parent="1" vertex="1">
                    <mxGeometry x="950" y="-110" width="100" height="40" as="geometry"/>
                </mxCell>
                <mxCell id="D39J3mKKFVJNs5gxyIfl-51" style="rounded=0;orthogonalLoop=1;jettySize=auto;html=1;exitX=0;exitY=0.5;exitDx=0;exitDy=0;entryX=1;entryY=0.5;entryDx=0;entryDy=0;endArrow=none;endFill=0;fontSize=20;" parent="1" source="D39J3mKKFVJNs5gxyIfl-52" target="D39J3mKKFVJNs5gxyIfl-3" edge="1">
                    <mxGeometry relative="1" as="geometry"/>
                </mxCell>
                <mxCell id="D39J3mKKFVJNs5gxyIfl-52" value="" style="ellipse;whiteSpace=wrap;html=1;fontSize=20;" parent="1" vertex="1">
                    <mxGeometry x="900" y="-30" width="200" height="80" as="geometry"/>
                </mxCell>
                <mxCell id="D39J3mKKFVJNs5gxyIfl-53" value="description" style="text;strokeColor=none;fillColor=none;html=1;fontSize=20;fontStyle=1;verticalAlign=middle;align=center;strokeWidth=1;" parent="1" vertex="1">
                    <mxGeometry x="950" y="-10" width="100" height="40" as="geometry"/>
                </mxCell>
                <mxCell id="D39J3mKKFVJNs5gxyIfl-54" style="rounded=0;orthogonalLoop=1;jettySize=auto;html=1;exitX=0;exitY=0.5;exitDx=0;exitDy=0;entryX=1;entryY=1;entryDx=0;entryDy=0;endArrow=none;endFill=0;fontSize=20;" parent="1" source="D39J3mKKFVJNs5gxyIfl-55" target="D39J3mKKFVJNs5gxyIfl-24" edge="1">
                    <mxGeometry relative="1" as="geometry"/>
                </mxCell>
                <mxCell id="D39J3mKKFVJNs5gxyIfl-55" value="" style="ellipse;whiteSpace=wrap;html=1;fontSize=20;" parent="1" vertex="1">
                    <mxGeometry x="950" y="60" width="120" height="80" as="geometry"/>
                </mxCell>
                <mxCell id="D39J3mKKFVJNs5gxyIfl-56" value="price" style="text;strokeColor=none;fillColor=none;html=1;fontSize=20;fontStyle=1;verticalAlign=middle;align=center;strokeWidth=1;" parent="1" vertex="1">
                    <mxGeometry x="960" y="80" width="100" height="40" as="geometry"/>
                </mxCell>
                <mxCell id="D39J3mKKFVJNs5gxyIfl-57" value="" style="ellipse;whiteSpace=wrap;html=1;fontSize=20;" parent="1" vertex="1">
                    <mxGeometry x="940" y="-220" width="120" height="80" as="geometry"/>
                </mxCell>
                <mxCell id="D39J3mKKFVJNs5gxyIfl-58" value="" style="rounded=0;orthogonalLoop=1;jettySize=auto;html=1;entryX=0.75;entryY=0;entryDx=0;entryDy=0;endArrow=none;endFill=0;fontSize=20;" parent="1" source="D39J3mKKFVJNs5gxyIfl-59" target="D39J3mKKFVJNs5gxyIfl-24" edge="1">
                    <mxGeometry relative="1" as="geometry"/>
                </mxCell>
                <mxCell id="D39J3mKKFVJNs5gxyIfl-59" value="item_id" style="text;strokeColor=none;fillColor=none;html=1;fontSize=20;fontStyle=5;verticalAlign=middle;align=center;strokeWidth=1;" parent="1" vertex="1">
                    <mxGeometry x="950" y="-200" width="100" height="40" as="geometry"/>
                </mxCell>
                <mxCell id="D39J3mKKFVJNs5gxyIfl-60" value="" style="ellipse;whiteSpace=wrap;html=1;fontSize=20;" parent="1" vertex="1">
                    <mxGeometry x="950" y="140" width="120" height="80" as="geometry"/>
                </mxCell>
                <mxCell id="D39J3mKKFVJNs5gxyIfl-61" style="rounded=0;orthogonalLoop=1;jettySize=auto;html=1;exitX=0;exitY=0.25;exitDx=0;exitDy=0;endArrow=none;endFill=0;fontSize=20;" parent="1" source="D39J3mKKFVJNs5gxyIfl-62" target="D39J3mKKFVJNs5gxyIfl-24" edge="1">
                    <mxGeometry relative="1" as="geometry"/>
                </mxCell>
                <mxCell id="D39J3mKKFVJNs5gxyIfl-62" value="status" style="text;strokeColor=none;fillColor=none;html=1;fontSize=20;fontStyle=1;verticalAlign=middle;align=center;strokeWidth=1;" parent="1" vertex="1">
                    <mxGeometry x="960" y="160" width="100" height="40" as="geometry"/>
                </mxCell>
                <mxCell id="D39J3mKKFVJNs5gxyIfl-63" value="" style="rounded=0;orthogonalLoop=1;jettySize=auto;html=1;entryX=0.25;entryY=1;entryDx=0;entryDy=0;endArrow=none;endFill=0;fontSize=20;" parent="1" source="D39J3mKKFVJNs5gxyIfl-64" target="D39J3mKKFVJNs5gxyIfl-2" edge="1">
                    <mxGeometry relative="1" as="geometry"/>
                </mxCell>
                <mxCell id="D39J3mKKFVJNs5gxyIfl-64" value="" style="ellipse;whiteSpace=wrap;html=1;fontSize=20;" parent="1" vertex="1">
                    <mxGeometry x="345" y="325" width="120" height="80" as="geometry"/>
                </mxCell>
                <mxCell id="D39J3mKKFVJNs5gxyIfl-65" value="bid_id" style="text;strokeColor=none;fillColor=none;html=1;fontSize=20;fontStyle=5;verticalAlign=middle;align=center;strokeWidth=1;" parent="1" vertex="1">
                    <mxGeometry x="355" y="345" width="100" height="40" as="geometry"/>
                </mxCell>
                <mxCell id="D39J3mKKFVJNs5gxyIfl-66" style="rounded=0;orthogonalLoop=1;jettySize=auto;html=1;endArrow=none;endFill=0;entryX=0.5;entryY=1;entryDx=0;entryDy=0;fontSize=20;" parent="1" source="D39J3mKKFVJNs5gxyIfl-67" target="D39J3mKKFVJNs5gxyIfl-2" edge="1">
                    <mxGeometry relative="1" as="geometry">
                        <mxPoint x="565" y="250" as="targetPoint"/>
                    </mxGeometry>
                </mxCell>
                <mxCell id="D39J3mKKFVJNs5gxyIfl-67" value="" style="ellipse;whiteSpace=wrap;html=1;fontSize=20;" parent="1" vertex="1">
                    <mxGeometry x="515" y="320" width="120" height="80" as="geometry"/>
                </mxCell>
                <mxCell id="D39J3mKKFVJNs5gxyIfl-68" value="amout" style="text;strokeColor=none;fillColor=none;html=1;fontSize=20;fontStyle=1;verticalAlign=middle;align=center;strokeWidth=1;" parent="1" vertex="1">
                    <mxGeometry x="525" y="340" width="100" height="40" as="geometry"/>
                </mxCell>
                <mxCell id="D39J3mKKFVJNs5gxyIfl-69" value="" style="rounded=0;orthogonalLoop=1;jettySize=auto;html=1;endArrow=none;endFill=0;entryX=1;entryY=1;entryDx=0;entryDy=0;fontSize=20;" parent="1" source="D39J3mKKFVJNs5gxyIfl-70" target="D39J3mKKFVJNs5gxyIfl-2" edge="1">
                    <mxGeometry relative="1" as="geometry">
                        <mxPoint x="630" y="240" as="targetPoint"/>
                    </mxGeometry>
                </mxCell>
                <mxCell id="D39J3mKKFVJNs5gxyIfl-70" value="" style="ellipse;whiteSpace=wrap;html=1;fontSize=20;" parent="1" vertex="1">
                    <mxGeometry x="725" y="320" width="120" height="80" as="geometry"/>
                </mxCell>
                <mxCell id="D39J3mKKFVJNs5gxyIfl-71" value="time" style="text;strokeColor=none;fillColor=none;html=1;fontSize=20;fontStyle=1;verticalAlign=middle;align=center;strokeWidth=1;" parent="1" vertex="1">
                    <mxGeometry x="735" y="340" width="100" height="40" as="geometry"/>
                </mxCell>
                <mxCell id="D39J3mKKFVJNs5gxyIfl-72" value="" style="rounded=0;orthogonalLoop=1;jettySize=auto;html=1;endArrow=none;endFill=0;fontSize=20;" parent="1" source="D39J3mKKFVJNs5gxyIfl-73" target="D39J3mKKFVJNs5gxyIfl-26" edge="1">
                    <mxGeometry relative="1" as="geometry"/>
                </mxCell>
                <mxCell id="D39J3mKKFVJNs5gxyIfl-73" value="" style="ellipse;whiteSpace=wrap;html=1;fontSize=20;" parent="1" vertex="1">
                    <mxGeometry x="500" y="-250" width="120" height="80" as="geometry"/>
                </mxCell>
                <mxCell id="D39J3mKKFVJNs5gxyIfl-74" value="date" style="text;strokeColor=none;fillColor=none;html=1;fontSize=20;fontStyle=1;verticalAlign=middle;align=center;strokeWidth=1;" parent="1" vertex="1">
                    <mxGeometry x="510" y="-230" width="100" height="40" as="geometry"/>
                </mxCell>
                <mxCell id="D39J3mKKFVJNs5gxyIfl-75" value="" style="rounded=0;orthogonalLoop=1;jettySize=auto;html=1;endArrow=none;endFill=0;fontSize=20;" parent="1" source="D39J3mKKFVJNs5gxyIfl-76" target="D39J3mKKFVJNs5gxyIfl-26" edge="1">
                    <mxGeometry relative="1" as="geometry"/>
                </mxCell>
                <mxCell id="D39J3mKKFVJNs5gxyIfl-76" value="" style="ellipse;whiteSpace=wrap;html=1;fontSize=20;" parent="1" vertex="1">
                    <mxGeometry x="150" y="-410" width="240" height="80" as="geometry"/>
                </mxCell>
                <mxCell id="D39J3mKKFVJNs5gxyIfl-77" value="purchase_id" style="text;strokeColor=none;fillColor=none;html=1;fontSize=20;fontStyle=5;verticalAlign=middle;align=center;strokeWidth=1;" parent="1" vertex="1">
                    <mxGeometry x="220" y="-390" width="100" height="40" as="geometry"/>
                </mxCell>
                <mxCell id="D39J3mKKFVJNs5gxyIfl-78" value="" style="rounded=0;orthogonalLoop=1;jettySize=auto;html=1;endArrow=none;endFill=0;fontSize=20;" parent="1" source="D39J3mKKFVJNs5gxyIfl-79" target="D39J3mKKFVJNs5gxyIfl-26" edge="1">
                    <mxGeometry relative="1" as="geometry"/>
                </mxCell>
                <mxCell id="D39J3mKKFVJNs5gxyIfl-79" value="" style="ellipse;whiteSpace=wrap;html=1;fontSize=20;" parent="1" vertex="1">
                    <mxGeometry x="690" y="-400" width="240" height="80" as="geometry"/>
                </mxCell>
                <mxCell id="D39J3mKKFVJNs5gxyIfl-80" value="total_amout" style="text;strokeColor=none;fillColor=none;html=1;fontSize=20;fontStyle=1;verticalAlign=middle;align=center;strokeWidth=1;" parent="1" vertex="1">
                    <mxGeometry x="760" y="-380" width="100" height="40" as="geometry"/>
                </mxCell>
                <mxCell id="D39J3mKKFVJNs5gxyIfl-81" style="rounded=0;orthogonalLoop=1;jettySize=auto;html=1;exitX=0.5;exitY=1;exitDx=0;exitDy=0;endArrow=none;endFill=0;fontSize=20;" parent="1" source="D39J3mKKFVJNs5gxyIfl-82" edge="1">
                    <mxGeometry relative="1" as="geometry">
                        <mxPoint x="500" y="-600" as="targetPoint"/>
                    </mxGeometry>
                </mxCell>
                <mxCell id="D39J3mKKFVJNs5gxyIfl-82" value="" style="ellipse;whiteSpace=wrap;html=1;fontSize=20;" parent="1" vertex="1">
                    <mxGeometry x="300" y="-760" width="140" height="80" as="geometry"/>
                </mxCell>
                <mxCell id="D39J3mKKFVJNs5gxyIfl-83" value="method" style="text;strokeColor=none;fillColor=none;html=1;fontSize=20;fontStyle=1;verticalAlign=middle;align=center;strokeWidth=1;" parent="1" vertex="1">
                    <mxGeometry x="320" y="-740" width="100" height="40" as="geometry"/>
                </mxCell>
                <mxCell id="D39J3mKKFVJNs5gxyIfl-84" value="" style="rounded=0;orthogonalLoop=1;jettySize=auto;html=1;endArrow=none;endFill=0;fontSize=20;" parent="1" source="D39J3mKKFVJNs5gxyIfl-85" target="D39J3mKKFVJNs5gxyIfl-27" edge="1">
                    <mxGeometry relative="1" as="geometry"/>
                </mxCell>
                <mxCell id="D39J3mKKFVJNs5gxyIfl-85" value="" style="ellipse;whiteSpace=wrap;html=1;fontSize=20;" parent="1" vertex="1">
                    <mxGeometry x="490" y="-760" width="120" height="80" as="geometry"/>
                </mxCell>
                <mxCell id="D39J3mKKFVJNs5gxyIfl-86" value="date" style="text;strokeColor=none;fillColor=none;html=1;fontSize=20;fontStyle=1;verticalAlign=middle;align=center;strokeWidth=1;" parent="1" vertex="1">
                    <mxGeometry x="500" y="-740" width="100" height="40" as="geometry"/>
                </mxCell>
                <mxCell id="D39J3mKKFVJNs5gxyIfl-87" style="rounded=0;orthogonalLoop=1;jettySize=auto;html=1;exitX=0.5;exitY=1;exitDx=0;exitDy=0;entryX=1;entryY=0.25;entryDx=0;entryDy=0;endArrow=none;endFill=0;fontSize=20;" parent="1" source="D39J3mKKFVJNs5gxyIfl-88" target="D39J3mKKFVJNs5gxyIfl-1" edge="1">
                    <mxGeometry relative="1" as="geometry"/>
                </mxCell>
                <mxCell id="D39J3mKKFVJNs5gxyIfl-88" value="" style="ellipse;whiteSpace=wrap;html=1;fontSize=20;" parent="1" vertex="1">
                    <mxGeometry x="720" y="-760" width="120" height="80" as="geometry"/>
                </mxCell>
                <mxCell id="D39J3mKKFVJNs5gxyIfl-89" value="amout" style="text;strokeColor=none;fillColor=none;html=1;fontSize=20;fontStyle=1;verticalAlign=middle;align=center;strokeWidth=1;" parent="1" vertex="1">
                    <mxGeometry x="730" y="-740" width="100" height="40" as="geometry"/>
                </mxCell>
                <mxCell id="D39J3mKKFVJNs5gxyIfl-90" style="rounded=0;orthogonalLoop=1;jettySize=auto;html=1;exitX=0.5;exitY=1;exitDx=0;exitDy=0;entryX=0;entryY=0.5;entryDx=0;entryDy=0;endArrow=none;endFill=0;fontSize=20;" parent="1" source="D39J3mKKFVJNs5gxyIfl-91" target="D39J3mKKFVJNs5gxyIfl-1" edge="1">
                    <mxGeometry relative="1" as="geometry"/>
                </mxCell>
                <mxCell id="D39J3mKKFVJNs5gxyIfl-91" value="" style="ellipse;whiteSpace=wrap;html=1;fontSize=20;" parent="1" vertex="1">
                    <mxGeometry x="70" y="-770" width="200" height="80" as="geometry"/>
                </mxCell>
                <mxCell id="D39J3mKKFVJNs5gxyIfl-92" value="payment_id" style="text;strokeColor=none;fillColor=none;html=1;fontSize=20;fontStyle=5;verticalAlign=middle;align=center;strokeWidth=1;" parent="1" vertex="1">
                    <mxGeometry x="120" y="-750" width="100" height="40" as="geometry"/>
                </mxCell>
                <mxCell id="D39J3mKKFVJNs5gxyIfl-93" style="rounded=0;orthogonalLoop=1;jettySize=auto;html=1;exitX=0.5;exitY=1;exitDx=0;exitDy=0;entryX=1;entryY=0.75;entryDx=0;entryDy=0;endArrow=none;endFill=0;fontSize=20;" parent="1" source="D39J3mKKFVJNs5gxyIfl-94" target="D39J3mKKFVJNs5gxyIfl-1" edge="1">
                    <mxGeometry relative="1" as="geometry"/>
                </mxCell>
                <mxCell id="D39J3mKKFVJNs5gxyIfl-94" value="" style="ellipse;whiteSpace=wrap;html=1;fontSize=20;" parent="1" vertex="1">
                    <mxGeometry x="900" y="-760" width="120" height="80" as="geometry"/>
                </mxCell>
                <mxCell id="D39J3mKKFVJNs5gxyIfl-95" value="status" style="text;strokeColor=none;fillColor=none;html=1;fontSize=20;fontStyle=1;verticalAlign=middle;align=center;strokeWidth=1;" parent="1" vertex="1">
                    <mxGeometry x="910" y="-740" width="100" height="40" as="geometry"/>
                </mxCell>
                <mxCell id="D39J3mKKFVJNs5gxyIfl-192" value="&lt;span style=&quot;color: rgb(0, 0, 0); font-weight: 700; text-wrap-mode: nowrap;&quot;&gt;username&lt;/span&gt;" style="ellipse;whiteSpace=wrap;html=1;fontSize=20;" parent="1" vertex="1">
                    <mxGeometry x="-345" y="-120" width="190" height="80" as="geometry"/>
                </mxCell>
                <mxCell id="D39J3mKKFVJNs5gxyIfl-198" style="edgeStyle=none;html=1;exitX=1;exitY=0.5;exitDx=0;exitDy=0;entryX=0;entryY=1;entryDx=0;entryDy=0;endArrow=none;endFill=0;fontSize=20;" parent="1" source="D39J3mKKFVJNs5gxyIfl-195" target="D39J3mKKFVJNs5gxyIfl-5" edge="1">
                    <mxGeometry relative="1" as="geometry"/>
                </mxCell>
                <mxCell id="D39J3mKKFVJNs5gxyIfl-195" value="&lt;span style=&quot;color: rgb(0, 0, 0); font-weight: 700; text-wrap-mode: nowrap;&quot;&gt;password&lt;/span&gt;" style="ellipse;whiteSpace=wrap;html=1;fontSize=20;" parent="1" vertex="1">
                    <mxGeometry x="-345" y="40" width="190" height="80" as="geometry"/>
                </mxCell>
                <mxCell id="oDjLAZSMQWyJAnGqgnoR-4" style="edgeStyle=none;html=1;exitX=1;exitY=0;exitDx=0;exitDy=0;entryX=0.25;entryY=1;entryDx=0;entryDy=0;endArrow=none;endFill=0;fontSize=20;" parent="1" target="D39J3mKKFVJNs5gxyIfl-5" edge="1" source="oDjLAZSMQWyJAnGqgnoR-1">
                    <mxGeometry relative="1" as="geometry">
                        <mxPoint x="-63.431457505076196" y="299.64466094067257" as="sourcePoint"/>
                    </mxGeometry>
                </mxCell>
                <mxCell id="oDjLAZSMQWyJAnGqgnoR-1" value="&lt;span&gt;&lt;b&gt;Role&lt;/b&gt;&lt;/span&gt;" style="ellipse;whiteSpace=wrap;html=1;fontSize=20;" parent="1" vertex="1">
                    <mxGeometry x="-220" y="200" width="120" height="80" as="geometry"/>
                </mxCell>
            </root>
        </mxGraphModel>
    </diagram>
</mxfile>